HIERARCHY
ROOT Hips
{
	OFFSET -0.001795 -0.223333 0.028219
	CHANNELS 6 Xposition Yposition Zposition Zrotation Yrotation Xrotation 
	JOINT LeftUpLeg
	{
		OFFSET 0.069520 -0.091406 -0.006815
		CHANNELS 3 Zrotation Yrotation Xrotation
		JOINT LeftLeg
		{
			OFFSET 0.034277 -0.375199 -0.004496
			CHANNELS 3 Zrotation Yrotation Xrotation
			JOINT LeftFoot
			{
				OFFSET -0.013596 -0.397961 -0.043693
				CHANNELS 3 Zrotation Yrotation Xrotation
				JOINT LeftToe
				{
					OFFSET 0.026358 -0.055791 0.119288
					CHANNELS 3 Zrotation Yrotation Xrotation
					End Site
					{
						OFFSET 0.000000 0.000000 0.000000
					}
				}
			}
		}
	}
	JOINT RightUpLeg
	{
		OFFSET -0.067670 -0.090522 -0.004320
		CHANNELS 3 Zrotation Yrotation Xrotation
		JOINT RightLeg
		{
			OFFSET -0.038290 -0.382569 -0.008850
			CHANNELS 3 Zrotation Yrotation Xrotation
			JOINT RightFoot
			{
				OFFSET 0.015774 -0.398415 -0.042312
				CHANNELS 3 Zrotation Yrotation Xrotation
				JOINT RightToe
				{
					OFFSET -0.025372 -0.048144 0.123348
					CHANNELS 3 Zrotation Yrotation Xrotation
					End Site
					{
						OFFSET 0.000000 0.000000 0.000000
					}
				}
			}
		}
	}
	JOINT Spine
	{
		OFFSET -0.002533 0.108963 -0.026696
		CHANNELS 3 Zrotation Yrotation Xrotation
		JOINT Spine1
		{
			OFFSET 0.005487 0.135180 0.001092
			CHANNELS 3 Zrotation Yrotation Xrotation
			JOINT Spine2
			{
				OFFSET 0.001457 0.052922 0.025425
				CHANNELS 3 Zrotation Yrotation Xrotation
				JOINT Neck
				{
					OFFSET -0.002778 0.213870 -0.042857
					CHANNELS 3 Zrotation Yrotation Xrotation
					JOINT Head
					{
						OFFSET 0.005152 0.064970 0.051349
						CHANNELS 3 Zrotation Yrotation Xrotation
						End Site
						{
							OFFSET 0.000000 0.000000 0.000000
						}
					}
				}
				JOINT LeftShoulder
				{
					OFFSET 0.078845 0.121749 -0.034090
					CHANNELS 3 Zrotation Yrotation Xrotation
					JOINT LeftArm
					{
						OFFSET 0.090977 0.030469 -0.008868
						CHANNELS 3 Zrotation Yrotation Xrotation
						JOINT LeftForeArm
						{
							OFFSET 0.259612 -0.012772 -0.027456
							CHANNELS 3 Zrotation Yrotation Xrotation
							JOINT LeftHand
							{
								OFFSET 0.249234 0.008986 -0.001171
								CHANNELS 3 Zrotation Yrotation Xrotation
								End Site
								{
									OFFSET 0.000000 0.000000 0.000000
								}
							}
						}
					}
				}
				JOINT RightShoulder
				{
					OFFSET -0.081759 0.118833 -0.038615
					CHANNELS 3 Zrotation Yrotation Xrotation
					JOINT RightArm
					{
						OFFSET -0.096012 0.032551 -0.009143
						CHANNELS 3 Zrotation Yrotation Xrotation
						JOINT RightForeArm
						{
							OFFSET -0.253742 -0.013329 -0.021401
							CHANNELS 3 Zrotation Yrotation Xrotation
							JOINT RightHand
							{
								OFFSET -0.255298 0.007772 -0.005559
								CHANNELS 3 Zrotation Yrotation Xrotation
								End Site
								{
									OFFSET 0.000000 0.000000 0.000000
								}
							}
						}
					}
				}
			}
		}
	}
}
MOTION
Frames: 7
Frame Time: 0.050000
0.000000 0.953544 0.000000 -1.889705 4.543971 7.573002 4.953190 -0.377447 -3.823710 1.705878 0.163484 -7.057507 1.748472 8.182439 12.804896 0.000000 0.000000 0.000000 -2.963260 0.609376 -6.804610 -0.872661 0.014102 -1.783189 -1.026510 -6.056333 11.106184 0.000000 0.000000 0.000000 1.168513 0.175775 -4.551047 1.230316 -0.280802 -5.876496 -0.446109 -1.786764 5.824480 1.444096 0.143177 -13.805044 0.000000 0.000000 0.000000 -14.844935 2.133421 -2.575766 -60.131615 -7.178189 -3.639968 -10.372098 -16.804314 2.134276 0.000000 0.000000 0.000000 12.991839 -2.834969 -2.373908 64.142462 6.796915 -2.531419 4.783514 14.345593 0.997230 0.000000 0.000000 0.000000 
0.000323 0.952368 0.000100 -2.091542 3.819154 8.040195 4.218213 -0.365314 -3.739775 3.472319 0.140230 -7.801042 1.996227 8.465961 12.704936 0.000000 0.000000 0.000000 -3.370292 0.648650 -7.417480 -0.124316 -0.040595 -1.355594 -0.385288 -4.748450 10.623316 0.000000 0.000000 0.000000 1.775435 0.188703 -4.753713 0.167530 0.145306 -5.950606 0.411883 -1.601738 5.437259 0.607252 0.666309 -14.256989 0.000000 0.000000 0.000000 -15.837030 3.102485 -3.118591 -59.598693 -6.856866 -3.714016 -11.728901 -17.391463 2.430347 0.000000 0.000000 0.000000 12.333001 -3.424905 -2.652943 64.805196 6.059891 -2.937262 5.458534 15.173389 1.126692 0.000000 0.000000 0.000000 
0.000524 0.952269 -0.000031 -1.895431 4.348566 7.785066 4.191946 -0.359483 -3.624627 3.444181 0.099479 -7.089992 1.477612 7.607484 12.345488 0.000000 0.000000 0.000000 -3.411844 0.637838 -7.386667 -0.169477 -0.013647 -0.807833 -1.059875 -5.828390 9.870742 0.000000 0.000000 0.000000 1.466588 0.158329 -4.177454 0.395855 0.112350 -7.308059 -0.124507 -1.903651 5.969550 0.358219 0.827672 -14.192484 0.000000 0.000000 0.000000 -15.056631 2.773209 -2.861727 -60.103808 -6.608766 -3.938258 -11.286453 -17.714528 2.408457 0.000000 0.000000 0.000000 13.947408 -2.787226 -2.507829 63.202426 5.779634 -3.096977 5.239562 14.577566 1.058982 0.000000 0.000000 0.000000 
0.000645 0.952067 -0.000031 -2.316025 4.397827 7.942281 4.250289 -0.373131 -3.826874 4.080714 0.081525 -7.188362 1.507323 7.689850 12.440299 0.000000 0.000000 0.000000 -3.413209 0.684754 -8.065464 0.272446 -0.041681 -0.305709 -1.003562 -5.739994 9.994713 0.000000 0.000000 0.000000 1.696807 0.159819 -4.215937 -0.044459 0.271857 -6.901391 0.739998 -2.624599 5.091070 0.021001 0.937879 -13.889158 0.000000 0.000000 0.000000 -14.538379 3.587845 -3.050720 -61.377483 -6.882796 -3.746554 -11.188440 -17.736099 2.420113 0.000000 0.000000 0.000000 12.931629 -2.796886 -2.554127 63.416393 5.399289 -3.265253 6.177709 14.463672 1.125151 0.000000 0.000000 0.000000 
0.000688 0.952188 -0.000071 -2.189517 5.156811 7.731268 4.214006 -0.368854 -3.701451 4.085129 0.080800 -7.158318 0.884142 6.809019 12.498493 0.000000 0.000000 0.000000 -3.457530 0.661493 -7.868540 0.266407 -0.037252 -0.187518 -1.522129 -6.647409 9.805652 0.000000 0.000000 0.000000 1.411256 0.144360 -3.930306 0.432237 0.103423 -7.104073 0.410793 -2.970041 5.281427 -0.257768 1.153718 -14.330141 0.000000 0.000000 0.000000 -14.376782 3.254272 -2.890700 -61.537475 -7.240485 -3.596911 -11.720122 -17.559367 2.472626 0.000000 0.000000 0.000000 12.961339 -2.668872 -2.466558 63.183947 5.439888 -3.244790 6.717960 14.287280 1.170618 0.000000 0.000000 0.000000 
0.000746 0.952491 -0.000064 -2.198874 5.269775 7.826643 4.108907 -0.376450 -3.841868 4.418772 0.062379 -7.066490 0.939129 6.905639 12.472107 0.000000 0.000000 0.000000 -3.404460 0.676141 -8.070507 0.137241 -0.020907 -0.133491 -1.475838 -6.599343 10.065332 0.000000 0.000000 0.000000 1.175118 0.151013 -4.084916 0.564595 0.050944 -7.049172 0.683529 -3.280970 5.300044 -0.172997 1.076875 -14.406007 0.000000 0.000000 0.000000 -14.401506 3.549839 -2.986340 -61.618371 -7.227238 -3.598817 -11.782402 -17.903382 2.544506 0.000000 0.000000 0.000000 12.696172 -2.571758 -2.432810 63.250234 5.630208 -3.167409 6.617090 14.039050 1.130857 0.000000 0.000000 0.000000 
0.000779 0.952537 -0.000042 -2.152233 5.524681 7.804732 3.978690 -0.368298 -3.701343 4.456838 0.073473 -7.246406 0.878367 7.010501 13.011661 0.000000 0.000000 0.000000 -3.234538 0.679462 -8.053348 -0.097969 0.010262 -0.008673 -1.462648 -6.510030 9.930604 0.000000 0.000000 0.000000 1.076675 0.149504 -4.068541 0.725394 -0.012489 -6.958109 0.542557 -3.612326 5.294696 -0.005299 0.967410 -14.564071 0.000000 0.000000 0.000000 -14.315648 3.712209 -3.027079 -61.485058 -6.941280 -3.735253 -12.319520 -18.068465 2.660373 0.000000 0.000000 0.000000 12.675427 -2.422536 -2.385094 63.121066 5.432550 -3.277498 6.974384 14.424143 1.201316 0.000000 0.000000 0.000000 
